<svg xmlns="http://www.w3.org/2000/svg" width="70" height="70" viewBox="0 0 70 70">
  <g id="_8" data-name="8" transform="translate(-3886.343 519.514)">
    <path id="Path_254097" data-name="Path 254097" d="M3886.343-450.345v-69.169h69.169a1.68,1.68,0,0,1,.831,1.653q-.019,33.352-.011,66.706c0,1.256-.374,1.63-1.63,1.63q-33.353,0-66.706.011A1.68,1.68,0,0,1,3886.343-450.345Zm67.607-1.526v-65.273h-65.225v65.273Z" fill="#48a5f0"/>
    <path id="Path_254098" data-name="Path 254098" d="M3955.481-450.347h-65.225V-515.62h65.225Zm-62.948-32.685a30.407,30.407,0,0,0,30.258,30.372,30.375,30.375,0,0,0,30.413-30.272,30.376,30.376,0,0,0-30.285-30.4A30.377,30.377,0,0,0,3892.533-483.032Z" transform="translate(-1.531 -1.524)" fill="#fff"/>
    <path id="Path_254099" data-name="Path 254099" d="M3894-481.561a30.376,30.376,0,0,1,30.385-30.3,30.376,30.376,0,0,1,30.286,30.4,30.375,30.375,0,0,1-30.413,30.272A30.407,30.407,0,0,1,3894-481.561Zm58.341.043a28.109,28.109,0,0,0-28-28.012,28.144,28.144,0,0,0-28.015,28.006,28.109,28.109,0,0,0,28,28A28.109,28.109,0,0,0,3952.338-481.518Z" transform="translate(-2.995 -2.995)" fill="#48a5f0"/>
    <path id="Path_254100" data-name="Path 254100" d="M3953.836-480.02a28.109,28.109,0,0,1-28.009,28,28.109,28.109,0,0,1-28-28,28.144,28.144,0,0,1,28.016-28.006A28.109,28.109,0,0,1,3953.836-480.02Zm-22.25-7.315c-.546-.415-1.375-.727-1.637-1.3a18.609,18.609,0,0,1-1.449-10.535,21.223,21.223,0,0,1,1.793-5.848c.473-1.037-.02-1.81-1.128-1.821-2.255-.023-4.51,0-6.765-.007a1.179,1.179,0,0,0-1.146.712,22.17,22.17,0,0,0-2.277,9.406,21.607,21.607,0,0,0,1.488,8.273c.081.206.216.565.139.629-.545.456-1.1,1.138-1.723,1.221a17.88,17.88,0,0,1-8.709-1.129,20.408,20.408,0,0,1-6.71-4.235c-.9-.828-1.755-.582-2.142.578-.7,2.092-1.359,4.2-2.048,6.291a1.214,1.214,0,0,0,.336,1.366,22.2,22.2,0,0,0,6.22,4.263,21.545,21.545,0,0,0,10.358,1.939c.215-.013.591-.01.629.088.259.663.734,1.412.61,2.026a18.348,18.348,0,0,1-3.838,7.974,20.4,20.4,0,0,1-6.012,4.974c-1.034.578-1.117,1.5-.208,2.18,1.806,1.348,3.625,2.682,5.487,3.95a1.547,1.547,0,0,0,1.32.087,21.3,21.3,0,0,0,7.436-6.3,22.055,22.055,0,0,0,3.645-7.578c.05-.191.146-.524.234-.528.711-.035,1.568-.262,2.117.044a18.182,18.182,0,0,1,6.373,6.053,20.591,20.591,0,0,1,2.929,7.368,1.187,1.187,0,0,0,2.042.786c1.8-1.281,3.576-2.592,5.364-3.889a1.272,1.272,0,0,0,.548-1.365,20.87,20.87,0,0,0-5.3-10.888,56.521,56.521,0,0,0-4.54-3.9c-.156-.133-.407-.368-.372-.477a4.107,4.107,0,0,1,1.2-2.4,20.212,20.212,0,0,1,9.522-4.139,20.615,20.615,0,0,1,5.58-.022c1.1.137,1.741-.58,1.419-1.617-.673-2.171-1.389-4.33-2.1-6.49a1.233,1.233,0,0,0-1.118-.866,21.771,21.771,0,0,0-14.887,3.231C3933.371-488.657,3932.524-488,3931.587-487.335Z" transform="translate(-4.493 -4.493)" fill="#fff"/>
    <path id="Path_254101" data-name="Path 254101" d="M3932.464-486.574c.938-.667,1.784-1.323,2.682-1.9a21.771,21.771,0,0,1,14.887-3.231,1.233,1.233,0,0,1,1.118.866c.709,2.16,1.425,4.319,2.1,6.49.321,1.037-.315,1.754-1.419,1.617a20.615,20.615,0,0,0-5.58.022,20.212,20.212,0,0,0-9.522,4.139,4.107,4.107,0,0,0-1.2,2.4c-.035.108.216.343.372.477a56.521,56.521,0,0,1,4.54,3.9,20.87,20.87,0,0,1,5.3,10.888,1.272,1.272,0,0,1-.548,1.365c-1.788,1.3-3.565,2.608-5.364,3.889a1.187,1.187,0,0,1-2.042-.786,20.591,20.591,0,0,0-2.929-7.368,18.182,18.182,0,0,0-6.373-6.053c-.549-.306-1.405-.079-2.117-.044-.088,0-.184.337-.234.528a22.055,22.055,0,0,1-3.645,7.578,21.3,21.3,0,0,1-7.436,6.3,1.547,1.547,0,0,1-1.32-.087c-1.862-1.268-3.681-2.6-5.487-3.95-.909-.679-.827-1.6.208-2.18a20.4,20.4,0,0,0,6.012-4.974,18.348,18.348,0,0,0,3.838-7.974c.124-.614-.351-1.363-.61-2.026-.039-.1-.414-.1-.629-.088a21.545,21.545,0,0,1-10.358-1.939,22.2,22.2,0,0,1-6.22-4.263,1.214,1.214,0,0,1-.336-1.366c.689-2.095,1.35-4.2,2.048-6.291.387-1.16,1.244-1.407,2.142-.578a20.408,20.408,0,0,0,6.71,4.235,17.88,17.88,0,0,0,8.709,1.129c.623-.083,1.178-.765,1.723-1.221.077-.065-.058-.424-.139-.629a21.607,21.607,0,0,1-1.488-8.273,22.17,22.17,0,0,1,2.277-9.406,1.179,1.179,0,0,1,1.146-.712c2.255,0,4.51-.016,6.765.007,1.108.011,1.6.785,1.128,1.821a21.223,21.223,0,0,0-1.793,5.848,18.609,18.609,0,0,0,1.449,10.535C3931.089-487.3,3931.918-486.989,3932.464-486.574Zm-5.739,14.29a7,7,0,0,0,6.965-6.876,6.984,6.984,0,0,0-6.965-7.079,6.966,6.966,0,0,0-7,6.971A6.985,6.985,0,0,0,3926.725-472.284Zm4.475,1.368a21.977,21.977,0,0,1,8.531,12.466c1.087-.788,2.082-1.544,3.117-2.241a.793.793,0,0,0,.342-1.021,19.525,19.525,0,0,0-4.08-8.08,18.281,18.281,0,0,0-4.658-4Zm-20.271,10.467c1.1.8,2.151,1.539,3.179,2.321a.673.673,0,0,0,.9.03,19.576,19.576,0,0,0,6.567-6.523,18.05,18.05,0,0,0,2.309-5.576l-3.725-2.219A22.007,22.007,0,0,1,3910.929-460.449Zm39.595-24.785c-.421-1.3-.837-2.5-1.194-3.714-.128-.439-.356-.541-.773-.57a19.849,19.849,0,0,0-8.959,1.368,18.711,18.711,0,0,0-5.291,3.212c.591,1.359,1.154,2.653,1.729,3.975A22.125,22.125,0,0,1,3950.523-485.234Zm-22.548-3.439a22.018,22.018,0,0,1,.417-15.077c-1.363,0-2.612.026-3.861-.013a.753.753,0,0,0-.832.585,19.29,19.29,0,0,0-1.189,11.027c.25,1.367.723,2.692,1.063,3.925Zm-9.815,5.307a22.109,22.109,0,0,1-14.225-5.083c-.415,1.289-.783,2.5-1.2,3.7a.716.716,0,0,0,.271.922,19.6,19.6,0,0,0,8.237,4.219,17.977,17.977,0,0,0,5.973.451Z" transform="translate(-5.371 -5.253)" fill="#48a5f0"/>
    <path id="Path_254102" data-name="Path 254102" d="M3939.364-459.524a6.986,6.986,0,0,1-7-6.984,6.967,6.967,0,0,1,7-6.971,6.984,6.984,0,0,1,6.965,7.079A7,7,0,0,1,3939.364-459.524Z" transform="translate(-18.01 -18.014)" fill="#fff"/>
    <path id="Path_254103" data-name="Path 254103" d="M3951.213-450.153l3.252-2.875a18.282,18.282,0,0,1,4.658,4,19.524,19.524,0,0,1,4.08,8.08.793.793,0,0,1-.342,1.021c-1.035.7-2.03,1.453-3.117,2.241A21.977,21.977,0,0,0,3951.213-450.153Z" transform="translate(-25.384 -26.016)" fill="#fff"/>
    <path id="Path_254104" data-name="Path 254104" d="M3917.911-438.8a22.007,22.007,0,0,0,9.227-11.967l3.725,2.219a18.05,18.05,0,0,1-2.309,5.576,19.576,19.576,0,0,1-6.567,6.523.673.673,0,0,1-.9-.03C3920.062-437.263,3919.006-438.006,3917.911-438.8Z" transform="translate(-12.352 -26.9)" fill="#fff"/>
    <path id="Path_254105" data-name="Path 254105" d="M3972.534-474.615a22.124,22.124,0,0,0-14.488,4.272l-1.729-3.975a18.707,18.707,0,0,1,5.291-3.212,19.848,19.848,0,0,1,8.959-1.368c.417.029.645.131.773.57C3971.7-477.112,3972.113-475.911,3972.534-474.615Z" transform="translate(-27.382 -15.872)" fill="#fff"/>
    <path id="Path_254106" data-name="Path 254106" d="M3942.193-487.179l-4.4.446c-.34-1.233-.813-2.558-1.063-3.925a19.3,19.3,0,0,1,1.189-11.027.753.753,0,0,1,.832-.585c1.249.039,2.5.013,3.861.013A22.021,22.021,0,0,0,3942.193-487.179Z" transform="translate(-19.589 -6.748)" fill="#fff"/>
    <path id="Path_254107" data-name="Path 254107" d="M3919.829-472.026l-.947,4.21a17.978,17.978,0,0,1-5.973-.451,19.6,19.6,0,0,1-8.237-4.219.717.717,0,0,1-.271-.922c.421-1.2.789-2.412,1.2-3.7A22.109,22.109,0,0,0,3919.829-472.026Z" transform="translate(-7.039 -16.593)" fill="#fff"/>
  </g>
</svg>
