<svg xmlns="http://www.w3.org/2000/svg" xmlns:xlink="http://www.w3.org/1999/xlink" width="200.476" height="196.595" viewBox="0 0 200.476 196.595">
  <defs>
    <linearGradient id="linear-gradient" x1="0.462" y1="0.882" x2="0.855" y2="0.369" gradientUnits="objectBoundingBox">
      <stop offset="0" stop-color="#a2e6b0"/>
      <stop offset="0.093" stop-color="#a2e6b0"/>
      <stop offset="0.772" stop-color="#5eb5e0"/>
      <stop offset="1" stop-color="#48a5f0"/>
    </linearGradient>
    <linearGradient id="linear-gradient-2" x1="0.734" y1="0.201" x2="0.205" y2="0.919" gradientUnits="objectBoundingBox">
      <stop offset="0" stop-color="#48a5f0"/>
      <stop offset="1" stop-color="#3d5075"/>
    </linearGradient>
    <radialGradient id="radial-gradient" cx="0.5" cy="0.5" r="0.5" gradientTransform="matrix(-1, 0, 0, 1, 1, 0)" gradientUnits="objectBoundingBox">
      <stop offset="0" stop-opacity="0.49"/>
      <stop offset="1" stop-color="#fff" stop-opacity="0"/>
    </radialGradient>
    <filter id="Elipse_4966" x="11.936" y="7" width="178" height="178" filterUnits="userSpaceOnUse">
      <feOffset dy="3" input="SourceAlpha"/>
      <feGaussianBlur stdDeviation="3" result="blur"/>
      <feFlood flood-opacity="0.161"/>
      <feComposite operator="in" in2="blur"/>
      <feComposite in="SourceGraphic"/>
    </filter>
  </defs>
  <g id="Grupo_149411" data-name="Grupo 149411" transform="translate(-348.064 -672)">
    <path id="Trazado_113723" data-name="Trazado 113723" d="M-71.815,10.555a4.741,4.741,0,0,0-2.465,8.752A177.813,177.813,0,0,1-54.71,33.585a194.819,194.819,0,0,1,24.288,24.35,11.2,11.2,0,0,0,19.156-3.583c2.17-6.333,3.015-13.677-.246-20.5a21.725,21.725,0,0,0-9.747-9.829C-43.432,12.64-60.719,10.324-71.815,10.555Z" transform="translate(557.887 661.46)" fill="url(#linear-gradient)"/>
    <path id="blob" d="M14.848,140.34c-13.356-41.008.144-97.64,29.3-118.958C73.3-.1,117.964,13.9,153.579,43.026s62.183,73.229,53.279,107.24c-8.9,34.175-53.28,58.1-95.789,57.282C68.7,206.734,28.207,181.348,14.848,140.34Z" transform="translate(338.385 661.027)" fill="url(#linear-gradient-2)"/>
    <rect id="Rectángulo_40194" data-name="Rectángulo 40194" width="148.318" height="37.371" transform="translate(374 829.657)" fill="url(#radial-gradient)" style="mix-blend-mode: multiply;isolation: isolate"/>
    <g id="Grupo_149410" data-name="Grupo 149410" transform="translate(-4928 1158)">
      <g transform="matrix(1, 0, 0, 1, 5276.06, -486)" filter="url(#Elipse_4966)">
        <circle id="Elipse_4966-2" data-name="Elipse 4966" cx="80" cy="80" r="80" transform="translate(20.94 13)" fill="#fff"/>
      </g>
      <path id="Trazado_253846" data-name="Trazado 253846" d="M128.432,369.732a1.414,1.414,0,0,1-.066-.411c-.074,0-.147,0-.226,0H36.249v4.408q0,2.439,0,4.878c0,2.5,1.236,3.722,3.763,3.722q39.236,0,78.472,0c1.762,0,3.524.008,5.286,0a3.24,3.24,0,0,0,3.556-3.52c.01-1.456-.008-2.913.005-4.37.01-1.086.471-1.723,1.3-1.848A8.681,8.681,0,0,0,128.432,369.732Z" transform="translate(5295.12 -729.897)" fill="#a2e6b0"/>
      <path id="Trazado_253847" data-name="Trazado 253847" d="M41.208,303.267c.015-.327.032-.526.032-.724q0-15.8,0-31.607a3.253,3.253,0,1,0-6.5-.054c-.01,4.607,0,9.214,0,13.821q0,6.708,0,13.415c0,1.239-.581,1.908-1.615,1.9-.064,0-.121-.009-.18-.014a1.727,1.727,0,0,1,.158.57,8.55,8.55,0,0,1,0,2.731,6.534,6.534,0,0,1,.705-.034C36.232,303.266,38.667,303.267,41.208,303.267Z" transform="translate(5296.633 -683.352)" fill="#fff"/>
      <path id="Trazado_253848" data-name="Trazado 253848" d="M39.98,281.37c.015-.327.032-.526.032-.724q0-15.8,0-31.607a3.253,3.253,0,1,0-6.5-.054c-.011,4.607,0,9.214,0,13.821q0,6.708,0,13.415c0,1.239-.581,1.908-1.615,1.9a1.508,1.508,0,0,1-1.612-1.373,3.55,3.55,0,0,1-.021-.609c0-9.079-.018-18.158.011-27.236a6.5,6.5,0,0,1,10.527-5.127,6.624,6.624,0,0,1,2.513,5.033h9.658c.02-.293.057-.584.057-.874,0-4.065.021-8.131-.022-12.2a2.445,2.445,0,0,0-.569-1.395,25.708,25.708,0,0,0-1.992-2.029,1.847,1.847,0,0,1-.508-2.115c1.051-3.072,2.069-6.155,3.078-9.241a1.782,1.782,0,0,1,1.874-1.38c2,.011,4,.017,6,0a1.78,1.78,0,0,1,1.9,1.346c1.026,3.116,2.054,6.231,3.107,9.337a1.76,1.76,0,0,1-.427,1.953,1.523,1.523,0,0,1-.216.215c-2.13,1.471-2.687,3.477-2.518,6.022.225,3.4.055,6.833.055,10.4H63.8c3.354,0,6.709-.023,10.063.018a1.274,1.274,0,0,0,1.371-.873c.69-1.506,1.477-2.967,2.207-4.456a1.689,1.689,0,0,1,3.226.009c.759,1.549,1.514,3.1,2.326,4.623a1.272,1.272,0,0,0,.857.641c3.726.037,7.453.017,11.18.007.059,0,.118-.049.229-.1V245.66c-1.331-.278-1.63-1.228-1.586-2.488.063-1.793.023-3.59.013-5.386-.007-1.176-.555-1.872-1.494-1.941-.923-.068-1.588.549-1.761,1.689a1.6,1.6,0,0,1-1.7,1.535c-2.134.026-4.269.035-6.4,0a1.56,1.56,0,0,1-1.635-1.695q-.027-8.028,0-16.057a1.589,1.589,0,0,1,1.709-1.728c2.1-.031,4.2-.027,6.3,0,1.051.012,1.555.515,1.74,1.6.179,1.052.753,1.631,1.614,1.631a1.7,1.7,0,0,0,1.641-1.619,1.642,1.642,0,0,1,1.922-1.622c3.693-.007,7.387-.033,11.079.006a11.362,11.362,0,0,1,11.387,11.367c.027,2.067-.01,4.133.012,6.2a1.668,1.668,0,0,1-1.21,1.875c-.924.252-1.468-.257-2-.994a32.1,32.1,0,0,0-3.246-3.991,6.215,6.215,0,0,0-2.567-1.338c-1.47-.443-2.359.315-2.365,1.859-.011,2.947,0,5.895,0,8.842,0,1.431-.214,1.733-1.591,2.268v3.095h9.648c.086-.458.159-.951.271-1.433a6.494,6.494,0,0,1,12.8,1.109c.02.338.014.677.014,1.016q0,24.493,0,48.985c0,2-.435,2.437-2.442,2.437H33.508v4.408c0,1.626,0,3.252,0,4.878,0,2.5,1.236,3.722,3.763,3.722q39.236,0,78.472,0c1.762,0,3.524.008,5.286,0a3.24,3.24,0,0,0,3.556-3.52c.01-1.456-.008-2.913.005-4.37.011-1.227.6-1.883,1.64-1.872s1.6.654,1.606,1.909c.011,1.558.025,3.117,0,4.675a6.477,6.477,0,0,1-6.423,6.417c-4.337.046-8.674.014-13.011.015q-35.577,0-71.154,0c-3.64,0-6.291-2.105-6.9-5.473a8.044,8.044,0,0,1-.09-1.416q-.007-13.313,0-26.626c0-1.78.491-2.255,2.314-2.257C35,281.369,37.44,281.37,39.98,281.37Zm-6.432,16.184h90.986V284.681H33.549Zm91.039-16.21V254.371c0-1.829.015-3.658-.007-5.487a3.186,3.186,0,0,0-2.08-3.077,3.244,3.244,0,0,0-4.415,3.231q-.018,13.312-.005,26.623a9.17,9.17,0,0,1-.017,1.015,1.525,1.525,0,0,1-1.65,1.443,1.5,1.5,0,0,1-1.566-1.422,6.645,6.645,0,0,1-.018-.913q0-8.027,0-16.055v-1.075H105.07v6.455c.351,0,.582,0,.813,0,2.021.022,2.44.44,2.44,2.442q0,6.351,0,12.7v1.092ZM83.97,235.832c1.028,0,1.944.05,2.85-.027a1.332,1.332,0,0,0,.889-.576,4.872,4.872,0,0,1,5.584-2.469,4.821,4.821,0,0,1,3.644,4.88c.005,1.545,0,3.089,0,4.632h6.43a.888.888,0,0,0,.053-.166c.009-2.606,0-5.211.029-7.817a4.875,4.875,0,0,1,5.169-4.939A8.6,8.6,0,0,1,114,231.684c.232.2.46.4.826.725,0-.544,0-.847,0-1.15a8.078,8.078,0,0,0-8.444-8.426c-2.979-.01-5.959-.02-8.937.022a1.379,1.379,0,0,0-1.01.538,4.9,4.9,0,0,1-8.738.018c-.135-.23-.389-.538-.6-.55-1.032-.058-2.07-.026-3.126-.026Zm1.65,22.817V281.3h6.442v-1.183q0-6.291,0-12.582c0-1.961.429-2.4,2.352-2.423.288,0,.575-.04.838-.06v-6.4ZM49.77,281.326c0-2.151-.011-4.211,0-6.271a1.616,1.616,0,0,1,1.508-1.821c1.188-.222,1.732-.73,1.733-1.622s-.549-1.44-1.712-1.629a1.61,1.61,0,0,1-1.527-1.708c-.018-1.557-.025-3.114,0-4.671a1.621,1.621,0,0,1,1.793-1.745c.46-.014.921,0,1.379,0v-3.2H43.321v22.672Zm22.7,0v-22.64H62.837v3.174c.349,0,.646,0,.942,0,1.786.013,2.255.491,2.257,2.311,0,1.286.009,2.572,0,3.858-.011,1.267-.434,1.762-1.695,1.96a1.616,1.616,0,0,0-.06,3.224c1.418.281,1.752.674,1.757,2.107.005,1.986,0,3.973,0,6Zm9.759,0V255.434H75.847v25.889Zm-22.7-19.508v-1.2c0-7.784.1-15.569-.055-23.35-.051-2.586.366-4.7,2.547-6.271a1.235,1.235,0,0,0,.3-1.095c-.669-2.162-1.4-4.306-2.165-6.434a1.156,1.156,0,0,0-.823-.606c-.907-.079-1.828.016-2.738-.044-.638-.042-.883.219-1.058.792a32.51,32.51,0,0,1-1.527,4.506c-.843,1.773-.584,3.081,1.025,4.185A3.237,3.237,0,0,1,56.3,235.31c-.044,8.426-.023,16.853-.023,25.28v1.225Zm45.491,6.6H95.375v12.876h9.647Zm-52.05-3.269c.265.781-.4,1.61.641,2.14a4.6,4.6,0,0,1,2.643,4.36,4.7,4.7,0,0,1-2.7,4.331c-.209.111-.495.344-.5.526-.039,1.608-.023,3.218-.023,4.863h9.752c0-1.459-.03-2.808.013-4.154A1.347,1.347,0,0,0,62,275.8a4.735,4.735,0,0,1-.284-8.164,2.077,2.077,0,0,0,1.008-2.485Zm48.773-.086V245.68H98.616v19.384ZM62.834,255.3h9.573c.166-1.078.322-2.092.481-3.119H62.834Zm22.854-.015H95.26v-3.128H85.207C85.364,253.172,85.52,254.188,85.688,255.28Zm-42.373.017h9.643v-3.124H43.315Zm61.814-3.149v3.138h9.623v-3.138Zm-23.841-.081-2.244-4.46-2.215,4.46Z" transform="translate(5297.861 -661.455)"/>
      <path id="Trazado_253849" data-name="Trazado 253849" d="M36.325,352.361V339.487h90.986v12.874Z" transform="translate(5295.084 -716.262)" fill="#a2e6b0"/>
      <path id="Trazado_253850" data-name="Trazado 253850" d="M197.232,270.781a3.186,3.186,0,0,0-2.08-3.077,3.244,3.244,0,0,0-4.415,3.231q-.018,13.312-.005,26.623a9.165,9.165,0,0,1-.017,1.015A1.511,1.511,0,0,1,189.291,300c-.011,1.071-.039,2.142-.072,3.212,0,.009,0,.017,0,.025h8.022V276.268C197.239,274.439,197.254,272.61,197.232,270.781Z" transform="translate(5225.209 -683.352)" fill="#fff"/>
      <path id="Trazado_253851" data-name="Trazado 253851" d="M129.186,238.574v-13c1.057,0,2.094-.031,3.126.026.214.012.468.32.6.55a4.9,4.9,0,0,0,8.738-.018,1.379,1.379,0,0,1,1.01-.538c2.978-.042,5.958-.032,8.937-.022A8.078,8.078,0,0,1,160.044,234c0,.3,0,.607,0,1.15-.366-.321-.595-.525-.826-.725a8.6,8.6,0,0,0-5.383-2.336,4.875,4.875,0,0,0-5.169,4.939c-.03,2.606-.02,5.212-.029,7.817a.887.887,0,0,1-.053.166h-6.43c0-1.543,0-3.087,0-4.632a4.821,4.821,0,0,0-3.644-4.88,4.872,4.872,0,0,0-5.584,2.469,1.332,1.332,0,0,1-.889.576C131.13,238.624,130.214,238.574,129.186,238.574Z" transform="translate(5252.645 -664.197)" fill="#fff"/>
      <path id="Trazado_253852" data-name="Trazado 253852" d="M120.61,311.512h-6.385V285.623h6.385Z" transform="translate(5259.482 -691.645)" fill="#fff"/>
      <path id="Trazado_253853" data-name="Trazado 253853" d="M79.137,264.546H75.884v-1.225c0-8.426-.021-16.853.023-25.28a3.237,3.237,0,0,0-1.261-3.011c-1.608-1.1-1.867-2.412-1.025-4.185a32.507,32.507,0,0,0,1.527-4.506c.175-.572.42-.834,1.058-.792.91.06,1.831-.035,2.738.044a1.156,1.156,0,0,1,.823.606c.768,2.128,1.5,4.273,2.165,6.434a1.236,1.236,0,0,1-.3,1.095c-2.181,1.574-2.6,3.685-2.547,6.271.153,7.781.055,15.567.055,23.35Z" transform="translate(5278.254 -664.187)" fill="#fff"/>
      <path id="Trazado_253854" data-name="Trazado 253854" d="M159.837,309.538v12.876H150.19V309.538Z" transform="translate(5243.045 -702.574)" fill="#fff"/>
      <path id="Trazado_253855" data-name="Trazado 253855" d="M72.1,303.517h9.751A2.077,2.077,0,0,1,80.839,306a4.735,4.735,0,0,0,.284,8.164,1.347,1.347,0,0,1,.8,1.418c-.043,1.346-.013,2.695-.013,4.154H72.155c0-1.645-.016-3.255.023-4.863,0-.182.291-.415.5-.526a4.7,4.7,0,0,0,2.7-4.331,4.6,4.6,0,0,0-2.643-4.36C71.694,305.127,72.361,304.3,72.1,303.517Z" transform="translate(5278.736 -699.823)" fill="#fff"/>
      <path id="Trazado_253856" data-name="Trazado 253856" d="M159.288,287.043h-3.129V267.659h3.129Z" transform="translate(5240.317 -683.435)" fill="#fff"/>
      <path id="Trazado_253857" data-name="Trazado 253857" d="M90.259,282.742v-3.119h10.053c-.159,1.028-.315,2.042-.481,3.119Z" transform="translate(5270.435 -688.903)" fill="#fff"/>
      <path id="Trazado_253858" data-name="Trazado 253858" d="M131.945,282.708c-.168-1.092-.324-2.108-.481-3.128h10.053v3.128Z" transform="translate(5251.604 -688.883)" fill="#fff"/>
      <path id="Trazado_253859" data-name="Trazado 253859" d="M54.311,282.743v-3.124h9.643v3.124Z" transform="translate(5286.864 -688.901)" fill="#fff"/>
      <path id="Trazado_253860" data-name="Trazado 253860" d="M168.154,279.573h9.623v3.138h-9.623Z" transform="translate(5234.835 -688.88)" fill="#fff"/>
      <path id="Trazado_253861" data-name="Trazado 253861" d="M120.492,275.669h-4.459l2.215-4.46Z" transform="translate(5258.656 -685.057)" fill="#fff"/>
    </g>
  </g>
</svg>
