<svg xmlns="http://www.w3.org/2000/svg" xmlns:xlink="http://www.w3.org/1999/xlink" width="200.476" height="196.595" viewBox="0 0 200.476 196.595">
  <defs>
    <linearGradient id="linear-gradient" x1="0.462" y1="0.882" x2="0.855" y2="0.369" gradientUnits="objectBoundingBox">
      <stop offset="0" stop-color="#a2e6b0"/>
      <stop offset="0.093" stop-color="#a2e6b0"/>
      <stop offset="0.772" stop-color="#5eb5e0"/>
      <stop offset="1" stop-color="#48a5f0"/>
    </linearGradient>
    <linearGradient id="linear-gradient-2" x1="0.734" y1="0.201" x2="0.205" y2="0.919" gradientUnits="objectBoundingBox">
      <stop offset="0" stop-color="#48a5f0"/>
      <stop offset="1" stop-color="#3d5075"/>
    </linearGradient>
    <radialGradient id="radial-gradient" cx="0.5" cy="0.5" r="0.5" gradientTransform="matrix(-1, 0, 0, 1, 1, 0)" gradientUnits="objectBoundingBox">
      <stop offset="0" stop-opacity="0.49"/>
      <stop offset="1" stop-color="#fff" stop-opacity="0"/>
    </radialGradient>
    <filter id="Elipse_4964" x="12" y="7" width="178" height="178" filterUnits="userSpaceOnUse">
      <feOffset dy="3" input="SourceAlpha"/>
      <feGaussianBlur stdDeviation="3" result="blur"/>
      <feFlood flood-opacity="0.161"/>
      <feComposite operator="in" in2="blur"/>
      <feComposite in="SourceGraphic"/>
    </filter>
  </defs>
  <g id="Grupo_149413" data-name="Grupo 149413" transform="translate(-1051 -672)">
    <path id="Trazado_113723" data-name="Trazado 113723" d="M-71.815,10.555a4.741,4.741,0,0,0-2.465,8.752A177.813,177.813,0,0,1-54.71,33.585a194.819,194.819,0,0,1,24.288,24.35,11.2,11.2,0,0,0,19.156-3.583c2.17-6.333,3.015-13.677-.246-20.5a21.725,21.725,0,0,0-9.747-9.829C-43.432,12.64-60.719,10.324-71.815,10.555Z" transform="translate(1260.822 661.46)" fill="url(#linear-gradient)"/>
    <path id="blob" d="M14.848,140.34c-13.356-41.008.144-97.64,29.3-118.958C73.3-.1,117.964,13.9,153.579,43.026s62.183,73.229,53.279,107.24c-8.9,34.175-53.28,58.1-95.789,57.282C68.7,206.734,28.207,181.348,14.848,140.34Z" transform="translate(1041.321 661.027)" fill="url(#linear-gradient-2)"/>
    <rect id="Rectángulo_40194" data-name="Rectángulo 40194" width="148.318" height="37.371" transform="translate(1076.936 829.657)" fill="url(#radial-gradient)" style="mix-blend-mode: multiply;isolation: isolate"/>
    <g id="Grupo_148919" data-name="Grupo 148919" transform="translate(-52 94)">
      <g transform="matrix(1, 0, 0, 1, 1103, 578)" filter="url(#Elipse_4964)">
        <circle id="Elipse_4964-2" data-name="Elipse 4964" cx="80" cy="80" r="80" transform="translate(21 13)" fill="#fff"/>
      </g>
      <g id="Grupo_148916" data-name="Grupo 148916" transform="translate(1155.111 622.111)">
        <path id="Trazado_253862" data-name="Trazado 253862" d="M300.984,30.107q-5.842,11.773-11.667,23.556a2.974,2.974,0,0,1-2.343,1.823c-2.317.4-4.623.871-6.916,1.389a2.506,2.506,0,0,0-1.231.849c-.726.87-1.362,1.815-2.03,2.724,4.134,1.73,5.6,3.763,5.088,7.069-.484,3.106-2.592,4.573-7.285,5.046-.168,1.4-.294,2.821-.513,4.226a36.183,36.183,0,0,1-9.939,20c-2.674,2.77-5.419,5.473-8.16,8.178a40.229,40.229,0,0,1-17.284,9.707c-1.917.569-3.806,1.236-5.706,1.863a7.438,7.438,0,0,1-4.777.107,5.93,5.93,0,0,1-4.183-5.467,5.822,5.822,0,0,1,3.912-5.653c2.813-1,5.669-1.876,8.486-2.866A32.274,32.274,0,0,0,247.427,96.1c3.236-2.918,6.54-5.77,9.021-9.42a34.8,34.8,0,0,0,6.111-19.644c.014-1.464.038-2.929-.023-4.391a1.508,1.508,0,0,0-.542-1.058,11.493,11.493,0,0,1-3.341-3.358,1.181,1.181,0,0,0-.793-.521c-5.324-.121-10.618-.016-15.739,1.778a34.172,34.172,0,0,0-13.656,8.634c-3.3,3.447-6.615,6.878-8.9,11.149-1.831,3.418-2.87,7.121-4.116,10.754-.2.571-.379,1.146-.57,1.718-1.11,3.324-4.015,5.032-7.184,4.224a6.005,6.005,0,0,1-4.307-7.2c.988-3.837,2.293-7.6,3.606-11.345a34.207,34.207,0,0,1,7.417-12.233c2.921-3.1,5.932-6.129,8.979-9.111a35.83,35.83,0,0,1,4.248-3.534,36.42,36.42,0,0,1,19.246-6.806c.19-.012.38-.03.569-.057a1.23,1.23,0,0,0,.261-.137,6.641,6.641,0,0,1,1.975-5.755,5.818,5.818,0,0,1,3.616-1.529c3.183-.2,5.274,1.477,6.4,5.114,1.074-.736,2.176-1.453,3.227-2.238a1.585,1.585,0,0,0,.423-.9c.521-2.488,1.037-4.978,1.509-7.476a2.164,2.164,0,0,1,1.254-1.668q11.4-5.66,22.791-11.337c.391-.194.8-.357,1.2-.535h1.91a28.918,28.918,0,0,1,2.765,1.916,1.472,1.472,0,0,1,.034,2.285q-5.171,5.219-10.39,10.39a1.554,1.554,0,0,1-2.374-.026c-.3-.269-.582-.553-.741-.7l-4.1,4.048a5.184,5.184,0,0,1,.455.362c1.162,1.12,1.177,1.924.027,3.061-.561.555-1.164,1.066-1.792,1.638.469.409.817.681,1.128.992s.582.66,1.017,1.163c.381-.458.7-.9,1.07-1.276,1.869-1.89,2.045-1.889,4.008-.132.044.04.114.05,0,0l4.135-4.1a7.779,7.779,0,0,1-.887-.742,1.525,1.525,0,0,1,.011-2.3q5.173-5.217,10.389-10.391a1.438,1.438,0,0,1,2.272-.006,28.68,28.68,0,0,1,1.942,2.977ZM250.811,48.821c-.671,0-1.206-.006-1.74,0a33.424,33.424,0,0,0-23.651,9.686c-2.716,2.635-5.353,5.353-8.006,8.054a32.99,32.99,0,0,0-7.67,12.489q-1.576,4.545-3.036,9.129a6,6,0,0,0-.257,2.149,2.755,2.755,0,0,0,2.237,2.615,2.677,2.677,0,0,0,3.078-1.969c.426-1.2.811-2.407,1.214-3.611a52.936,52.936,0,0,1,5.056-11.788,61.977,61.977,0,0,1,7.425-8.938,36.5,36.5,0,0,1,22.43-11.715c2.573-.341,5.2-.288,7.8-.406.454-.02.894.053.888-.647-.028-3.276-.012-6.552-.044-9.828a2.518,2.518,0,0,0-1.484-2.28,2.866,2.866,0,0,0-4.233,2.616C250.776,45.806,250.811,47.236,250.811,48.821Zm14.861,14.831c0,1.494.022,2.886,0,4.277a37.18,37.18,0,0,1-6.2,19.933c-2.563,3.946-6.011,7.052-9.449,10.177a38,38,0,0,1-14.01,8.085q-3.443,1.117-6.858,2.322a2.646,2.646,0,0,0-1.9,3.03,2.717,2.717,0,0,0,2.586,2.263,6.227,6.227,0,0,0,2.152-.255c2.909-.909,5.8-1.871,8.69-2.844A33.052,33.052,0,0,0,253,103.389c3.03-2.859,6-5.786,8.886-8.792a33.291,33.291,0,0,0,9.362-20.687c.13-1.478.147-2.966.221-4.533,1.439,0,2.835.032,4.228-.008a2.87,2.87,0,1,0-.052-5.714c-2.863-.013-5.726,0-8.589,0Zm2.843-20.8a8.765,8.765,0,0,0-8.764,8.811,8.9,8.9,0,0,0,8.852,8.779,8.8,8.8,0,0,0-.088-17.59Zm21.258-5.887c.155.186.247.309.353.42,1.375,1.454,1.368,1.98-.052,3.4q-2.664,2.665-5.331,5.326c-1.127,1.121-1.787,1.123-2.9.033-.2-.2-.41-.38-.636-.589a5.312,5.312,0,0,1-.585.541,1.614,1.614,0,0,0-.6,2.264,5.061,5.061,0,0,1,.355,1.763c.054,1.126.015,2.256.015,3.436,1.859-.377,3.607-.7,5.337-1.108a1.608,1.608,0,0,0,.954-.738q5.437-10.752,10.81-21.537a6.7,6.7,0,0,0,.324-1.041Zm1.379-14.621a7.1,7.1,0,0,0-.953.307Q279.293,28.1,268.4,33.572c-.234.118-.536.335-.583.554-.405,1.873-.758,3.757-1.149,5.749a12.448,12.448,0,0,1,6.14.571.744.744,0,0,0,.578-.136c.482-.361.931-.764,1.549-1.283a13.381,13.381,0,0,1-1.2-1.019,1.417,1.417,0,0,1-.015-2.127q3.095-3.177,6.243-6.3a1.608,1.608,0,0,1,2.38.025c.3.268.583.552.893.845Z" transform="translate(-203.207 -19.223)"/>
        <path id="Trazado_253863" data-name="Trazado 253863" d="M253.916,70.118c0-1.585-.035-3.015.008-4.443a2.866,2.866,0,0,1,4.233-2.616,2.518,2.518,0,0,1,1.484,2.28c.033,3.276.017,6.552.044,9.828.006.7-.435.627-.888.647-2.6.118-5.227.064-7.8.406a36.5,36.5,0,0,0-22.43,11.715,61.977,61.977,0,0,0-7.425,8.938,52.936,52.936,0,0,0-5.056,11.788c-.4,1.2-.789,2.415-1.214,3.611a2.677,2.677,0,0,1-3.078,1.969,2.755,2.755,0,0,1-2.237-2.615,6,6,0,0,1,.257-2.149q1.459-4.583,3.036-9.129a32.99,32.99,0,0,1,7.67-12.489c2.653-2.7,5.289-5.418,8.006-8.054a33.424,33.424,0,0,1,23.651-9.686C252.71,70.112,253.244,70.118,253.916,70.118Z" transform="translate(-206.311 -40.52)" fill="#a2e6b0"/>
        <path id="Trazado_253864" data-name="Trazado 253864" d="M288.729,106.3h1.379c2.863,0,5.726-.01,8.589,0a2.87,2.87,0,1,1,.052,5.714c-1.393.04-2.788.008-4.228.008-.073,1.567-.091,3.055-.221,4.533a33.291,33.291,0,0,1-9.362,20.687c-2.884,3.006-5.856,5.933-8.886,8.792a33.053,33.053,0,0,1-12.311,7.251c-2.888.973-5.781,1.935-8.69,2.844a6.227,6.227,0,0,1-2.152.255,2.717,2.717,0,0,1-2.586-2.263,2.646,2.646,0,0,1,1.9-3.03q3.416-1.2,6.858-2.322a38,38,0,0,0,14.01-8.085c3.439-3.125,6.887-6.231,9.449-10.177a37.181,37.181,0,0,0,6.2-19.933C288.751,109.185,288.729,107.794,288.729,106.3Z" transform="translate(-226.263 -61.871)" fill="#a2e6b0"/>
        <path id="Trazado_253865" data-name="Trazado 253865" d="M322.8,65.538a8.8,8.8,0,0,1,.088,17.59,8.9,8.9,0,0,1-8.852-8.779A8.765,8.765,0,0,1,322.8,65.538Zm.066,13.283a4.493,4.493,0,0,0,4.51-4.474,4.561,4.561,0,0,0-4.548-4.558,4.516,4.516,0,1,0,.038,9.032Z" transform="translate(-257.49 -41.908)" fill="#cfbdb0"/>
        <path id="Trazado_253866" data-name="Trazado 253866" d="M363.3,46.485l8.041-7.829a6.69,6.69,0,0,1-.324,1.041q-5.385,10.779-10.81,21.537a1.608,1.608,0,0,1-.954.738c-1.73.407-3.478.731-5.337,1.108,0-1.181.038-2.311-.015-3.436a5.062,5.062,0,0,0-.355-1.763,1.614,1.614,0,0,1,.6-2.264,5.326,5.326,0,0,0,.585-.541c.227.209.436.394.636.589,1.116,1.09,1.777,1.088,2.9-.033q2.671-2.657,5.331-5.326c1.42-1.42,1.427-1.947.052-3.4C363.545,46.794,363.453,46.67,363.3,46.485Z" transform="translate(-276.731 -28.741)" fill="#fff"/>
        <path id="Trazado_253867" data-name="Trazado 253867" d="M352.073,25.343l-7.922,8.1c-.31-.294-.594-.578-.893-.845a1.608,1.608,0,0,0-2.38-.025q-3.151,3.122-6.243,6.3a1.417,1.417,0,0,0,.015,2.127,13.375,13.375,0,0,0,1.2,1.019c-.619.519-1.068.922-1.549,1.283a.744.744,0,0,1-.578.136,12.448,12.448,0,0,0-6.14-.571c.391-1.992.744-3.876,1.149-5.749.047-.219.349-.436.583-.554q10.893-5.473,21.8-10.919A7.1,7.1,0,0,1,352.073,25.343Z" transform="translate(-264.127 -22.221)" fill="#fff"/>
        <path id="Trazado_253868" data-name="Trazado 253868" d="M326.98,82.9a4.516,4.516,0,1,1,4.51-4.474A4.493,4.493,0,0,1,326.98,82.9Zm1.369-4.543a1.378,1.378,0,0,0-2.755.045,1.416,1.416,0,0,0,1.4,1.379A1.4,1.4,0,0,0,328.349,78.358Z" transform="translate(-261.605 -45.988)"/>
        <path id="Trazado_253869" data-name="Trazado 253869" d="M331.381,81.4a1.4,1.4,0,0,1-1.353,1.424,1.416,1.416,0,0,1-1.4-1.379,1.378,1.378,0,0,1,2.755-.045Z" transform="translate(-264.637 -49.033)" fill="#fff"/>
      </g>
    </g>
  </g>
</svg>
