<svg xmlns="http://www.w3.org/2000/svg" xmlns:xlink="http://www.w3.org/1999/xlink" width="165.5" height="165.5" viewBox="0 0 165.5 165.5">
  <defs>
    <filter id="Ellipse_4961" x="0" y="0" width="165.5" height="165.5" filterUnits="userSpaceOnUse">
      <feOffset dy="3" input="SourceAlpha"/>
      <feGaussianBlur stdDeviation="3" result="blur"/>
      <feFlood flood-opacity="0.161"/>
      <feComposite operator="in" in2="blur"/>
      <feComposite in="SourceGraphic"/>
    </filter>
  </defs>
  <g id="_5" data-name="5" transform="translate(-770 -3097)">
    <g transform="matrix(1, 0, 0, 1, 770, 3097)" filter="url(#Ellipse_4961)">
      <circle id="Ellipse_4961-2" data-name="Ellipse 4961" cx="73.75" cy="73.75" r="73.75" transform="translate(9 6)" fill="#fff"/>
    </g>
    <g id="Group_149029" data-name="Group 149029" transform="translate(165.271 3125.856)">
      <path id="Path_254021" data-name="Path 254021" d="M718.133,31.084q-3.6-4.374-7.21-8.738a5.731,5.731,0,0,1-.411-.662c-1.371,1.128-2.564,2.084-3.717,3.085a.872.872,0,0,0-.231.776c1.295,2.621.424,5.692-2.14,7.794q-19.75,16.187-39.4,32.5c-2.871,2.371-5.887,2.077-8.276-.8-1.7-2.055-3.4-4.118-5.1-6.174-.57-.689-1.153-1.369-1.749-2.077L645.9,60.117c.2.269.345.478.506.674q5.193,6.35,10.391,12.7,5.012,6.12,10.022,12.241A2.049,2.049,0,0,0,669,86.66a4.916,4.916,0,0,1,5.4,2.009c2.189,2.792,4.418,5.553,6.658,8.3.338.414.812.984,1.247,1.006,2.089.105,4.186.047,6.31.047a2.268,2.268,0,0,0-.181-.308q-7.094-8.769-14.207-17.522a1.609,1.609,0,0,0-.978-.485c-1.453-.179-2.915-.278-4.371-.428a4.7,4.7,0,0,1-4.311-5.007c.112-1.916.276-3.832.51-5.737a4.741,4.741,0,0,1,5.455-4.335c3.014.272,6.026.574,9.043.8a2.158,2.158,0,0,0,1.4-.428c4.963-4.06,9.9-8.157,14.838-12.243q4.252-3.516,8.513-7.021a1.484,1.484,0,0,1,2.288.14,1.5,1.5,0,0,1,.175-.124,13,13,0,0,0,2.2-2,10.439,10.439,0,0,0,1.892-1.851c-.434-.678-.247-1.381.6-2.088,2.1-1.751,4.215-3.484,6.32-5.228C719.018,33.149,719.119,32.283,718.133,31.084Z" fill="#fff"/>
      <path id="Path_254022" data-name="Path 254022" d="M704.312,23c1.429-1.179,2.853-2.364,4.331-3.589l-5.475-6.619-8.875,7.339c2.454,4.413,1.87,9-1.624,11.993-3.931,3.366-7.945,6.636-11.976,9.881a8.7,8.7,0,0,1-7.163,1.782,9.922,9.922,0,0,1-4.9-2.456c-1.585,1.307-3.117,2.567-4.645,3.834a1.478,1.478,0,0,1-1.567.392c-.029.019-.058.038-.09.057-1.49.84-2.951,1.671-4.352,2.655-.313.22-.622.425-.935.614l.026.027a1.436,1.436,0,0,1-.294,2.2c-.292.259-.6.5-.9.748l-3.683,3.058c2.445,2.955,4.786,5.833,7.2,8.648a2.3,2.3,0,0,0,1.654.827,4.773,4.773,0,0,0,2.316-1.007q10.734-8.778,21.4-17.641,9.035-7.462,18.067-14.929c1.532-1.267,1.824-2.773.876-4.3S702.9,24.164,704.312,23Z" fill="#fff"/>
      <path id="Path_254023" data-name="Path 254023" d="M729.476,1.144l-16.407,10.1c-.607-.724-1.176-1.382-1.72-2.061a1.8,1.8,0,0,0-1.8-.694c-1.934.261-3.881.434-5.81.726a3.543,3.543,0,0,0-1.658.7q-19.94,16.419-39.855,32.867a1.551,1.551,0,0,0-.021,2.665,1.43,1.43,0,0,0,1.781-.288c1.528-1.267,3.06-2.527,4.645-3.834a9.922,9.922,0,0,0,4.9,2.456A8.7,8.7,0,0,0,680.693,42c4.031-3.245,8.045-6.515,11.976-9.881,3.494-2.992,4.078-7.58,1.624-11.993l8.875-7.339,5.475,6.619c-1.478,1.225-2.9,2.41-4.331,3.589-1.413,1.166-1.56,1.993-.613,3.517s.656,3.032-.876,4.3q-9.027,7.473-18.067,14.929-10.69,8.832-21.4,17.641a4.773,4.773,0,0,1-2.316,1.007,2.3,2.3,0,0,1-1.653-.827c-2.415-2.815-4.756-5.693-7.2-8.648l3.683-3.058c.3-.249.61-.489.9-.748a1.436,1.436,0,0,0,.294-2.2,1.418,1.418,0,0,0-2.156-.046c-1.791,1.46-3.569,2.937-5.351,4.409q-3.086,2.55-6.171,5.1c-1.326,1.1-1.388,1.7-.309,3,2.033,2.456,4.064,4.913,6.252,7.559a5.957,5.957,0,0,0-.654.408c-2.163,1.777-4.314,3.569-6.48,5.342a3.253,3.253,0,0,1-4.968-.466c-.587-.7-1.149-1.416-1.748-2.1a1.472,1.472,0,1,0-2.221,1.9c.65.814,1.3,1.628,2,2.4a6.177,6.177,0,0,0,8.614.686c1.22-.975,2.412-1.987,3.617-2.981l3.62-2.983c.271.31.53.588.769.882q6.321,7.761,12.634,15.529a5.066,5.066,0,0,0,3.024,1.994,2.489,2.489,0,0,0,1.153.086c2.108-.725,3.205.488,4.332,1.991,1.892,2.526,3.938,4.936,5.9,7.41a5,5,0,0,0,4.131,2.017c1.92,0,3.841.061,5.761.1a2.818,2.818,0,0,0,2.867-1.628,2.777,2.777,0,0,0-.562-3.156q-6.252-7.692-12.479-15.4c-.158-.2-.313-.4-.607-.769.977.074,1.768.113,2.554.2a4.568,4.568,0,0,0,4.677-2.171A2.388,2.388,0,0,1,687.792,77c3.141.316,6.286.583,9.433.833a4.676,4.676,0,0,0,3.788-1.471c1.408-1.4,2.808-2.81,4.225-4.2a2.8,2.8,0,0,0-1.721-4.926q-4.568-.425-9.138-.834-4.521-.413-9.041-.828a5.839,5.839,0,0,1-.712-.176c1.8-1.491,3.49-2.9,5.187-4.3Q697.9,54.4,706,47.72c.55-.454,1.026-.912.838-1.72a1.458,1.458,0,0,0-2.518-.687q-4.269,3.5-8.513,7.021c-4.942,4.086-9.875,8.183-14.838,12.243a2.156,2.156,0,0,1-1.4.428c-3.017-.227-6.029-.529-9.043-.8a4.741,4.741,0,0,0-5.455,4.335c-.234,1.9-.4,3.821-.51,5.737a4.7,4.7,0,0,0,4.311,5.007c1.456.15,2.918.249,4.371.428a1.609,1.609,0,0,1,.978.485q7.126,8.742,14.207,17.522a2.268,2.268,0,0,1,.181.308c-2.124,0-4.221.058-6.31-.047-.435-.022-.909-.592-1.247-1.006-2.24-2.751-4.47-5.512-6.659-8.3A4.914,4.914,0,0,0,669,86.66a2.049,2.049,0,0,1-2.186-.932q-5-6.129-10.022-12.241-5.2-6.347-10.391-12.7c-.161-.2-.3-.4-.506-.674l4.006-3.332c.6.708,1.179,1.388,1.749,2.077,1.7,2.056,3.4,4.119,5.1,6.174,2.389,2.881,5.405,3.175,8.276.8q19.691-16.26,39.4-32.5c2.564-2.1,3.435-5.173,2.14-7.794a.872.872,0,0,1,.231-.776c1.153-1,2.346-1.957,3.717-3.085a5.731,5.731,0,0,0,.411.662q3.6,4.374,7.21,8.738c.986,1.2.885,2.065-.338,3.079-2.1,1.744-4.221,3.477-6.32,5.228-.919.766-1.064,1.528-.48,2.258.6.757,1.418.751,2.373-.035,2.136-1.758,4.277-3.512,6.4-5.287a4.73,4.73,0,0,0,.757-7,1.686,1.686,0,0,1-.226-1.283c.408-1.5.876-3,1.414-4.459a2.173,2.173,0,0,0-.505-2.493c-.493-.515-.916-1.1-1.446-1.74.3-.343.589-.679.886-1.007q5.588-6.141,11.173-12.283c.348-.383.652-.8.977-1.21V3.879l-2.54-2.735ZM702.791,70.135c-1.418,1.5-2.789,3-4.235,4.427a1.822,1.822,0,0,1-1.276.324c-2.983-.219-5.971-.424-8.941-.768a5.13,5.13,0,0,0-5.491,2.47,1.868,1.868,0,0,1-1.911.91c-3.916-.378-7.833-.748-11.747-1.141A1.74,1.74,0,0,1,667.5,74.37q.184-2.773.492-5.539a1.823,1.823,0,0,1,2.17-1.721c2.073.176,4.145.374,6.217.565q8.985.829,17.97,1.662C697.181,69.6,700.014,69.873,702.791,70.135Zm-10.858-48.06A6.035,6.035,0,0,1,690.668,30c-3.858,3.241-7.736,6.46-11.679,9.6a7.233,7.233,0,0,1-2.981,1.311,5.825,5.825,0,0,1-5.072-1.487Zm25.917,3.862L706.214,11.868c1.066-.137,1.958-.284,2.856-.345a1.029,1.029,0,0,1,.705.383q4.344,5.212,8.646,10.459a1.164,1.164,0,0,1,.292.846C718.5,24.077,718.183,24.917,717.85,25.937ZM728.164,5.421l.131.169L717.857,17.058l-2.92-3.535Z"/>
      <path id="Path_254024" data-name="Path 254024" d="M702.791,70.135c-2.777-.262-5.61-.534-8.444-.8q-8.985-.834-17.97-1.662c-2.072-.191-4.144-.389-6.217-.565a1.823,1.823,0,0,0-2.17,1.721q-.308,2.763-.492,5.539a1.74,1.74,0,0,0,1.692,1.987c3.914.393,7.831.763,11.747,1.141a1.868,1.868,0,0,0,1.911-.91,5.13,5.13,0,0,1,5.491-2.47c2.97.344,5.958.549,8.941.768a1.822,1.822,0,0,0,1.276-.324C700,73.136,701.373,71.633,702.791,70.135Z" fill="#fff"/>
      <path id="Path_254025" data-name="Path 254025" d="M691.933,22.075l-21,17.341a5.825,5.825,0,0,0,5.072,1.487,7.233,7.233,0,0,0,2.981-1.311c3.943-3.136,7.821-6.355,11.679-9.6A6.035,6.035,0,0,0,691.933,22.075Z" fill="#fff"/>
      <path id="Path_254026" data-name="Path 254026" d="M717.85,25.937c.333-1.02.65-1.86.863-2.726a1.164,1.164,0,0,0-.292-.846q-4.3-5.249-8.646-10.459a1.029,1.029,0,0,0-.705-.383c-.9.061-1.79.208-2.856.345Z" fill="#fff"/>
      <path id="Path_254027" data-name="Path 254027" d="M728.164,5.421l-13.227,8.1,2.92,3.535L728.295,5.59Z" fill="#fff"/>
    </g>
  </g>
</svg>
