<svg xmlns="http://www.w3.org/2000/svg" width="70" height="70" viewBox="0 0 70 70">
  <g id="_7" data-name="7" transform="translate(-455 -2686.005)">
    <g id="Group_149251" data-name="Group 149251" transform="translate(-3735.18 3205.519)">
      <path id="Path_254108" data-name="Path 254108" d="M4190.179-450.345v-69.169h69.169a1.679,1.679,0,0,1,.831,1.653q-.019,33.352-.011,66.706c0,1.256-.374,1.63-1.63,1.63q-33.352,0-66.706.011A1.68,1.68,0,0,1,4190.179-450.345Zm67.607-1.526v-65.273h-65.225v65.273Z" fill="#48a5f0"/>
      <path id="Path_254109" data-name="Path 254109" d="M4259.317-450.347V-515.62h-65.225v65.273Z" transform="translate(-1.531 -1.524)" fill="#fff"/>
      <g id="Group_149250" data-name="Group 149250" transform="translate(4200.129 -515.784)">
        <path id="Path_254110" data-name="Path 254110" d="M4229.63-450.846c-1.163-.163-2.335-.279-3.488-.5a23.847,23.847,0,0,1-13.121-6.621,15.219,15.219,0,0,1-3.255-4.9.841.841,0,0,0-.728-.6,3.007,3.007,0,0,1-2.459-3.011c-.011-4.048-.183-8.116.139-12.142a16.916,16.916,0,0,1,8.166-13.273,17.38,17.38,0,0,1,7.309-2.6v-.723c0-2.87-.014-5.739,0-8.609a9.406,9.406,0,0,1,7.241-9.315,9.391,9.391,0,0,1,11.532,9.255c.029,2.89.006,5.78.006,8.67v.6c1.367.374,2.713.626,3.971,1.107a17.254,17.254,0,0,1,11.137,12.545,19.844,19.844,0,0,1,.5,4.349c.072,3.234.024,6.471.022,9.707a3.164,3.164,0,0,1-2.716,3.491.725.725,0,0,0-.407.378c-2.2,5.147-6.284,8.216-11.3,10.233a27.009,27.009,0,0,1-8.178,1.836,2.863,2.863,0,0,0-.464.109Zm1.892-14.589h21.307c1.444,0,1.692-.253,1.692-1.72,0-3.073.063-6.148-.026-9.218a22.519,22.519,0,0,0-.581-4.639,15.436,15.436,0,0,0-14.241-11.465c-5.126-.1-10.256-.054-15.384-.041a15.143,15.143,0,0,0-10.224,3.825,15.56,15.56,0,0,0-5.419,12.257q0,4.579,0,9.157c0,1.639.2,1.844,1.813,1.844Zm-19.686,2.112c.071.172.1.267.146.353.172.323.333.652.526.962a17.568,17.568,0,0,0,8.4,6.889,26.794,26.794,0,0,0,20,.544,18.7,18.7,0,0,0,9.036-6.383c.531-.712.952-1.508,1.485-2.365Zm26.226-43.852a7.178,7.178,0,0,0-6.715-4.113c-2.754.143-5.629,2.042-6.2,4.113Zm.8,10.476h-14.534v2.029h14.534Zm-14.556-2.179h14.545v-1.98H4224.3Zm-.039-4.15h14.646l-.115-2.007h-14.434Z" transform="translate(-4206.525 513.386)" fill="#48a5f0"/>
        <path id="Path_254117" data-name="Path 254117" d="M4248.061-445.128c0,.629.019,1.258,0,1.886-.028.748-.422,1.167-1.043,1.164s-1.02-.422-1.033-1.174c-.022-1.277-.021-2.555,0-3.832.012-.742.414-1.191,1.013-1.208.619-.018,1.043.449,1.066,1.217C4248.077-446.426,4248.062-445.776,4248.061-445.128Z" transform="translate(-4221.958 487.914)" fill="#48a5f0"/>
        <path id="Path_254118" data-name="Path 254118" d="M4215.174-445.217c0-.649-.012-1.3,0-1.946a1.053,1.053,0,0,1,1.022-1.132,1.05,1.05,0,0,1,1.045,1.117c.022,1.337.024,2.676,0,4.013a1.014,1.014,0,0,1-1.059,1.087,1.021,1.021,0,0,1-1.008-1.132C4215.162-443.878,4215.173-444.548,4215.174-445.217Z" transform="translate(-4209.907 487.916)" fill="#48a5f0"/>
        <path id="Path_254119" data-name="Path 254119" d="M4227.5-445.162c0,.669.015,1.338-.005,2.007a1.006,1.006,0,0,1-1,1.076,1,1,0,0,1-1.059-1.02c-.032-1.377-.03-2.757,0-4.135a1.034,1.034,0,0,1,1.035-1.062,1.052,1.052,0,0,1,1.028,1.127C4227.516-446.5,4227.5-445.831,4227.5-445.162Z" transform="translate(-4213.917 487.916)" fill="#48a5f0"/>
        <path id="Path_254120" data-name="Path 254120" d="M4266.541-445.182c0-.669-.014-1.338,0-2.007a1.041,1.041,0,0,1,.988-1.1,1.034,1.034,0,0,1,1.076,1.08q.039,2.036,0,4.074a1,1,0,0,1-1.083,1.057,1.011,1.011,0,0,1-.98-1.1C4266.527-443.843,4266.541-444.513,4266.541-445.182Z" transform="translate(-4230.007 487.914)" fill="#48a5f0"/>
        <path id="Path_254121" data-name="Path 254121" d="M4278.869-445.164c0,.669.015,1.339,0,2.007a1.006,1.006,0,0,1-1,1.078,1,1,0,0,1-1.061-1.018c-.032-1.377-.03-2.757,0-4.135a1.035,1.035,0,0,1,1.033-1.065,1.051,1.051,0,0,1,1.029,1.126C4278.883-446.5,4278.869-445.833,4278.869-445.164Z" transform="translate(-4234.017 487.916)" fill="#48a5f0"/>
        <path id="Path_254122" data-name="Path 254122" d="M4237.771-445.13c0,.651.015,1.3-.006,1.954a1,1,0,0,1-.982,1.1,1.007,1.007,0,0,1-1.078-1.071c-.034-1.342-.032-2.687,0-4.03a1.049,1.049,0,0,1,1.056-1.112,1.048,1.048,0,0,1,1.01,1.146C4237.785-446.474,4237.771-445.8,4237.771-445.13Z" transform="translate(-4217.933 487.914)" fill="#48a5f0"/>
        <path id="Path_254123" data-name="Path 254123" d="M4256.272-445.231c0-.651-.016-1.3,0-1.954a1.035,1.035,0,0,1,.987-1.1,1.02,1.02,0,0,1,1.065,1.029q.059,2.074,0,4.151a.994.994,0,0,1-1.053,1.032,1,1,0,0,1-1-1.078C4256.255-443.846,4256.272-444.539,4256.272-445.231Z" transform="translate(-4225.989 487.914)" fill="#48a5f0"/>
        <path id="Path_254124" data-name="Path 254124" d="M4238.712-421.494a23.33,23.33,0,0,1-14.03-4.24,1.063,1.063,0,0,1-.44-1.507,1.042,1.042,0,0,1,1.6-.211,22.108,22.108,0,0,0,5.467,2.773,21.437,21.437,0,0,0,7.922,1.074c.406-.02.813-.061,1.218-.053a1.019,1.019,0,0,1,1.1.981,1.028,1.028,0,0,1-1.059,1.088c-.041,0-.082,0-.122.005Z" transform="translate(-4213.393 479.866)" fill="#48a5f0"/>
        <path id="Path_254125" data-name="Path 254125" d="M4257.369-422.3a.98.98,0,0,1-1.055-.813.954.954,0,0,1,.644-1.169c.817-.3,1.685-.487,2.466-.859,1.3-.617,2.542-1.339,3.805-2.024.2-.106.366-.257.56-.368a1.045,1.045,0,0,1,1.5.288,1,1,0,0,1-.35,1.432,36.124,36.124,0,0,1-3.556,2.108,35.8,35.8,0,0,1-3.591,1.325A2.4,2.4,0,0,1,4257.369-422.3Z" transform="translate(-4225.998 479.866)" fill="#48a5f0"/>
      </g>
    </g>
  </g>
</svg>
